<?xml version="1.0" encoding="UTF-8" standalone="no"?>
<svg
   xmlns:dc="http://purl.org/dc/elements/1.1/"
   xmlns:cc="http://creativecommons.org/ns#"
   xmlns:rdf="http://www.w3.org/1999/02/22-rdf-syntax-ns#"
   xmlns:svg="http://www.w3.org/2000/svg"
   xmlns="http://www.w3.org/2000/svg"
   xmlns:sodipodi="http://sodipodi.sourceforge.net/DTD/sodipodi-0.dtd"
   xmlns:inkscape="http://www.inkscape.org/namespaces/inkscape"
   version="1.1"
   id="svg11519"
   width="1000"
   height="413.75201"
   viewBox="0 0 999.99997 413.78376"
   inkscape:version="0.91 r13725"
   sodipodi:docname="Disney.svg">
  <sodipodi:namedview
     pagecolor="#ffffff"
     bordercolor="#666666"
     borderopacity="1"
     objecttolerance="10"
     gridtolerance="10"
     guidetolerance="10"
     inkscape:pageopacity="0"
     inkscape:pageshadow="2"
     inkscape:window-width="1366"
     inkscape:window-height="705"
     id="namedview4708"
     showgrid="false"
     inkscape:zoom="0.35355339"
     inkscape:cx="542.65617"
     inkscape:cy="114.78412"
     inkscape:window-x="-8"
     inkscape:window-y="-8"
     inkscape:window-maximized="1"
     inkscape:current-layer="svg11519" />
  <metadata
     id="metadata11527">
    <rdf:RDF>
      <cc:Work
         rdf:about="">
        <dc:format>image/svg+xml</dc:format>
        <dc:type
           rdf:resource="http://purl.org/dc/dcmitype/StillImage" />
        <dc:title></dc:title>
      </cc:Work>
    </rdf:RDF>
  </metadata>
  <defs
     id="defs11525" />
  <path
     id="path11521"
     d="m 864.26692,179.94209 c -16.9049,3.90113 -61.55115,6.06842 -61.55115,6.06842 l -5.49047,17.62733 c 0,0 22.10639,-1.87833 38.28885,-0.28897 0,0 5.2015,-0.43346 5.77945,5.77945 0.28897,6.3574 -0.43346,13.00376 -0.43346,13.00376 0,0 -0.43345,3.90113 -5.77945,4.91254 -6.21291,1.0114 -48.11392,2.88972 -48.11392,2.88972 l -6.79085,22.82882 c 0,0 -2.45627,5.20152 3.17868,3.75665 5.20152,-1.44487 49.12533,-9.82506 54.90479,-8.66918 6.06841,1.44487 13.00376,9.82506 10.98095,17.33835 -2.31178,9.10265 -46.2356,37.13298 -72.82107,35.25465 0,0 -14.01517,0.86692 -25.71855,-18.06078 -11.26993,-18.06078 3.90114,-52.01505 3.90114,-52.01505 0,0 -6.79087,-15.89349 -1.73385,-21.67294 0,0 2.88972,-2.45627 11.5589,-3.1787 l 10.83647,-22.25089 c 0,0 -12.28133,0.72243 -19.50565,-8.23571 -6.64636,-8.66918 -7.22431,-12.42582 -2.02281,-14.7376 5.49049,-2.88972 56.34965,-11.99236 91.31532,-10.83647 0,0 12.28133,-1.44486 23.1178,19.79462 0,0 4.91253,8.66917 -3.75664,10.69198 m -131.91594,85.53587 c -4.3346,10.54749 -16.32695,21.67294 -30.77558,14.88208 C 686.98228,273.4247 663.72,226.03321 663.72,226.03321 c 0,0 -8.66918,-17.62732 -10.40302,-17.04937 0,0 -1.87832,-3.46768 -2.88973,15.89348 -1.44486,19.21667 0.28898,56.63861 -7.65776,62.56255 -7.22432,5.77946 -15.89349,3.32318 -20.80603,-3.46766 -4.04561,-6.79087 -5.77945,-23.11782 -3.46766,-51.5816 2.60075,-28.4638 9.10264,-58.80591 17.33834,-68.19752 8.66917,-9.53609 15.60452,-2.60076 18.20528,0 0,0 11.12543,10.11403 29.90865,40.0227 l 3.17871,5.49048 c 0,0 17.04937,28.46379 18.7832,28.3193 0,0 1.44486,1.44487 2.60075,0.28897 1.73384,-0.43346 1.15589,-9.68058 1.15589,-9.68058 0,0 -3.17869,-30.77557 -19.07218,-82.79063 0,0 -2.31179,-6.64636 -0.72244,-13.00376 1.44487,-5.77945 7.65777,-2.88972 7.65777,-2.88972 0,0 23.98473,11.5589 35.68811,50.57018 11.55891,39.0113 3.75664,74.41043 -0.57795,84.95793 M 614.88363,165.34898 c -2.31176,4.04562 -3.32318,9.68058 -13.29273,11.26993 0,0 -96.80579,6.79085 -101.57383,13.5817 0,0 -3.1787,4.04562 2.0228,5.05702 5.49048,1.15589 27.45239,4.04562 37.8554,4.62356 11.26993,0 49.12533,0.28898 62.99601,17.33836 0,0 7.94675,8.09123 7.65777,26.44098 -0.28897,18.78322 -3.61216,25.42958 -10.98095,32.22044 -7.65778,6.3574 -73.25454,35.83259 -115.58901,-9.24712 0,0 -19.36116,-21.67294 6.79086,-38.14437 0,0 18.7832,-11.5589 66.89713,1.87832 0,0 14.44862,5.2015 13.87069,10.54749 -0.86692,5.77946 -11.99236,11.5589 -28.17482,11.26993 -15.60452,-0.43346 -27.16342,-7.94674 -24.85164,-6.64636 2.16729,0.72242 -16.9049,-9.24712 -22.82883,-2.45628 -5.77945,6.35741 -4.33459,10.11406 1.44485,14.01518 14.44865,8.3802 71.23173,5.34599 88.13663,-13.58171 0,0 6.79085,-7.65777 -3.46767,-13.87068 -10.11405,-5.77945 -39.58924,-9.39161 -51.00365,-9.82507 -10.83647,-0.57793 -51.43711,0 -57.50554,-10.54749 0,0 -5.77944,-7.5133 0.57795,-28.03034 6.64637,-21.67294 53.89338,-30.05314 74.41043,-31.78698 0,0 56.34964,-2.31178 66.89714,9.24712 0,0 1.44485,2.60075 -0.28899,6.50188 M 455.08184,292.3524 c -6.79085,5.05702 -21.23948,2.88973 -25.42959,-2.88973 -4.0456,-5.05701 -5.49047,-24.99611 -4.76804,-56.34963 1.01141,-32.07595 1.44486,-71.37622 8.66918,-77.73362 7.22431,-6.21291 11.5589,-0.72242 14.44862,3.46767 2.88973,4.3346 6.64638,9.10264 7.22432,19.07219 0.86691,10.11404 3.32319,62.1291 3.32319,62.1291 0,0 3.17869,47.39149 -3.32319,52.30402 m 14.30413,-169.04892 c -19.9391,6.79086 -33.52081,4.62356 -45.0797,-0.43346 -5.05702,9.10263 -8.09123,11.84787 -11.84788,12.42582 -5.77945,0.57795 -10.83646,-8.66917 -11.5589,-11.5589 -1.15589,-2.1673 -3.90113,-6.06843 -0.57794,-14.88209 C 389.19611,98.740815 388.32919,85.159108 390.352,76.056473 c 2.60075,-10.691982 21.67294,-50.859163 79.46744,-55.627208 0,0 28.3193,-2.022813 33.23184,13.003762 l 0.86692,0 c 0,0 27.45239,0 26.87444,24.562663 0,24.562665 -30.34211,55.19375 -61.26218,65.74125 m 25.71857,-70.36481 c -18.20528,2.889726 -46.23562,27.163417 -59.67283,47.24701 20.66153,3.75664 56.78309,2.31177 72.96555,-30.342117 0,0 7.65778,-20.51705 -13.29272,-16.904893 m -79.9009,15.893489 c -5.77946,9.391606 -6.06843,15.02657 -3.32319,18.783213 6.79085,-10.114039 18.78321,-26.007525 36.844,-38.433344 -13.87069,1.444862 -25.57407,7.224312 -33.52081,19.650131 M 907.61279,291.341 c -13.29273,32.6539 -24.56266,65.74124 -31.06454,115.30004 0,0 -1.44487,9.68058 -9.39162,6.50187 -7.94674,-2.88973 -20.9505,-15.89349 -23.84023,-34.24325 -2.88971,-23.98471 7.80227,-64.44086 29.61969,-110.96544 -6.3574,-10.11403 -10.83646,-25.1406 -7.22431,-46.2356 0,0 5.77944,-39.0113 44.79073,-74.26594 0,0 4.62356,-3.90113 7.22433,-2.60075 3.17868,1.44486 1.8783,13.87068 -0.72245,20.22807 -2.31178,6.06843 -19.65013,36.12157 -19.65013,36.12157 0,0 -10.83647,20.51705 -7.80226,36.55503 20.51706,-31.49801 67.18611,-95.36093 96.08337,-75.13286 18.34973,13.00376 18.34973,54.90478 4.62355,79.17847 -10.83646,19.21667 -41.46755,58.9504 -82.35715,49.70328 m 60.10628,-98.25067 c -10.69199,11.5589 -29.76417,33.52082 -44.79075,63.28499 15.89349,-1.73383 31.35352,-10.54749 36.12157,-15.02657 7.65777,-6.79086 25.2851,-25.1406 22.53985,-49.4143 0,0 -1.73383,-12.71479 -13.87067,1.15588 M 320.70962,308.39037 c -51.14813,15.60453 -99.40654,8.38021 -125.70304,1.44487 -0.72243,10.69198 -1.87832,15.17106 -3.61215,16.90489 -2.02281,2.31177 -18.78322,11.84788 -28.03034,-1.73383 -4.04561,-6.50189 -6.06842,-18.20528 -7.2243,-28.89726 C 96.900418,269.2346 69.44803,229.64537 68.581112,228.2005 67.13625,226.75564 53.699027,212.74048 67.13625,195.40212 c 12.570304,-15.60452 54.18235,-31.35351 91.4598,-37.56642 1.44486,-31.78698 4.91253,-56.34964 9.39161,-67.186115 5.34599,-13.003763 12.13684,-1.444863 18.20526,7.224312 4.91253,6.501883 7.94674,34.387733 8.23572,56.638613 24.27369,-1.15589 39.01128,0.57794 66.03021,5.77945 35.54362,6.06842 59.23938,24.27369 57.36105,44.79074 -1.73384,20.22808 -20.22807,28.60829 -27.45239,29.18623 -7.22431,0.57795 -18.78321,-4.76806 -18.78321,-4.76806 -8.09123,-3.75663 -0.72244,-7.2243 8.66917,-11.26991 10.40302,-5.05702 8.09124,-10.11404 8.09124,-10.11404 -3.75665,-11.55891 -49.84776,-19.21669 -95.6499,-19.21669 0,25.28511 1.01139,67.18612 1.73383,91.6043 32.07594,6.06843 56.06067,4.76805 56.06067,4.76805 0,0 117.03386,-3.3232 120.35705,-78.02257 C 374.45851,132.40611 253.81249,60.740929 164.95344,38.201074 76.238883,14.938791 25.957667,31.41022 21.62308,33.577512 c -4.768047,2.311782 -0.433459,3.178699 -0.433459,3.178699 0,0 4.768046,0.722431 13.437221,3.612156 8.669175,2.889725 1.733835,7.224313 1.733835,7.224313 C 21.189621,52.794186 4.2847291,49.759973 0.96154515,42.824634 -2.3616386,36.03378 3.128839,29.820871 9.6307205,20.718237 15.699143,11.326623 22.634483,11.615606 22.634483,11.615606 132.44403,-26.673256 266.52727,41.957715 266.52727,41.957715 391.94135,105.2427 413.32531,179.65312 411.01354,208.55038 c -2.02282,28.46379 -13.00377,76.5777 -90.30392,99.98448 M 79.417581,205.0827 c -12.425818,5.77946 -3.756643,15.02658 -3.756643,15.02658 23.406774,24.99612 52.015052,40.74511 79.467432,50.57018 3.17871,-43.34588 2.88973,-58.8059 2.88973,-80.62333 -42.47896,2.88972 -67.041619,9.82506 -78.600519,15.02657"
     inkscape:connector-curvature="0" />
</svg>
